HIERARCHY
ROOT Hips
{
    OFFSET 0.000000 0.000000 0.000000
    CHANNELS 6 Xposition Yposition Zposition Zrotation Yrotation Xrotation
    JOINT Chest
    {
        OFFSET 0.000000 1.634758 -0.000000
        CHANNELS 3 Zrotation Yrotation Xrotation
        JOINT Chest2
        {
            OFFSET 0.000000 2.197341 0.000000
            CHANNELS 3 Zrotation Yrotation Xrotation
            JOINT Neck
            {
                OFFSET 0.000000 0.961544 0.000000
                CHANNELS 3 Zrotation Yrotation Xrotation
                JOINT Head
                {
                    OFFSET 0.000000 0.632542 -0.032565
                    CHANNELS 3 Zrotation Yrotation Xrotation
                    End Site
                    {
                        OFFSET -0.000001 0.439502 2.922845
                    }
                }
            }
            JOINT LeftCollar
            {
                OFFSET 0.167536 0.778237 -0.168280
                CHANNELS 3 Zrotation Yrotation Xrotation
                JOINT LeftShoulder
                {
                    OFFSET 0.831514 -0.002900 0.006458
                    CHANNELS 3 Zrotation Yrotation Xrotation
                    JOINT LeftElbow
                    {
                        OFFSET 2.272872 -0.026639 0.059314
                        CHANNELS 3 Zrotation Yrotation Xrotation
                        JOINT LeftWrist
                        {
                            OFFSET 2.081982 -0.024402 0.054333
                            CHANNELS 3 Zrotation Yrotation Xrotation
                            JOINT LeftHandThumb1
                            {
                                OFFSET 0.218903 -0.128645 0.283837
                                CHANNELS 3 Zrotation Yrotation Xrotation
                                JOINT LeftHandThumb2
                                {
                                    OFFSET 0.137157 -0.025101 0.077902
                                    CHANNELS 3 Zrotation Yrotation Xrotation
                                    JOINT LeftHandThumb3
                                    {
                                        OFFSET 0.144681 -0.110835 0.017953
                                        CHANNELS 3 Zrotation Yrotation Xrotation
                                        End Site
                                        {
                                            OFFSET 0.238636 -0.118145 0.030515
                                        }
                                    }
                                }
                            }
                            JOINT LeftHandFore1
                            {
                                OFFSET 0.767340 -0.016076 0.196678
                                CHANNELS 3 Zrotation Yrotation Xrotation
                                JOINT LeftHandFore2
                                {
                                    OFFSET 0.189101 -0.105877 0.005106
                                    CHANNELS 3 Zrotation Yrotation Xrotation
                                    JOINT LeftHandFore3
                                    {
                                        OFFSET 0.067158 -0.110431 0.007595
                                        CHANNELS 3 Zrotation Yrotation Xrotation
                                        End Site
                                        {
                                            OFFSET 0.009171 -0.192623 0.013384
                                        }
                                    }
                                }
                            }
                            JOINT LeftHandMiddle1
                            {
                                OFFSET 0.709887 -0.008320 0.018526
                                CHANNELS 3 Zrotation Yrotation Xrotation
                                JOINT LeftHandMiddle2
                                {
                                    OFFSET 0.207834 -0.128723 0.017294
                                    CHANNELS 3 Zrotation Yrotation Xrotation
                                    JOINT LeftHandMiddle3
                                    {
                                        OFFSET 0.059338 -0.133318 0.009414
                                        CHANNELS 3 Zrotation Yrotation Xrotation
                                        End Site
                                        {
                                            OFFSET -0.041971 -0.231904 0.009454
                                        }
                                    }
                                }
                            }
                            JOINT LeftHandRing1
                            {
                                OFFSET 0.743817 -0.005823 -0.153668
                                CHANNELS 3 Zrotation Yrotation Xrotation
                                JOINT LeftHandRing2
                                {
                                    OFFSET 0.295822 -0.188774 0.039837
                                    CHANNELS 3 Zrotation Yrotation Xrotation
                                    JOINT LeftHandRing3
                                    {
                                        OFFSET 0.026033 -0.133434 0.011093
                                        CHANNELS 3 Zrotation Yrotation Xrotation
                                        End Site
                                        {
                                            OFFSET -0.040571 -0.113021 -0.000132
                                        }
                                    }
                                }
                            }
                            JOINT LeftHandLittle1
                            {
                                OFFSET 0.689408 -0.053302 -0.308304
                                CHANNELS 3 Zrotation Yrotation Xrotation
                                JOINT LeftHandLittle2
                                {
                                    OFFSET 0.181859 -0.065948 0.025143
                                    CHANNELS 3 Zrotation Yrotation Xrotation
                                    JOINT LeftHandLittle3
                                    {
                                        OFFSET 0.051388 -0.107914 0.014493
                                        CHANNELS 3 Zrotation Yrotation Xrotation
                                        End Site
                                        {
                                            OFFSET -0.075941 -0.173772 0.018028
                                        }
                                    }
                                }
                            }
                        }
                    }
                }
            }
            JOINT RightCollar
            {
                OFFSET -0.167536 0.778237 -0.168280
                CHANNELS 3 Zrotation Yrotation Xrotation
                JOINT RightShoulder
                {
                    OFFSET -0.831514 -0.002900 0.006457
                    CHANNELS 3 Zrotation Yrotation Xrotation
                    JOINT RightElbow
                    {
                        OFFSET -2.272872 -0.026639 0.059313
                        CHANNELS 3 Zrotation Yrotation Xrotation
                        JOINT RightWrist
                        {
                            OFFSET -2.081982 -0.024402 0.054331
                            CHANNELS 3 Zrotation Yrotation Xrotation
                            JOINT RightHandThumb1
                            {
                                OFFSET -0.218911 -0.128571 0.283837
                                CHANNELS 3 Zrotation Yrotation Xrotation
                                JOINT RightHandThumb2
                                {
                                    OFFSET -0.137157 -0.025101 0.077902
                                    CHANNELS 3 Zrotation Yrotation Xrotation
                                    JOINT RightHandThumb3
                                    {
                                        OFFSET -0.168900 -0.063919 0.030439
                                        CHANNELS 3 Zrotation Yrotation Xrotation
                                        End Site
                                        {
                                            OFFSET -0.226305 -0.114235 0.087022
                                        }
                                    }
                                }
                            }
                            JOINT RightHandFore1
                            {
                                OFFSET -0.767344 -0.015991 0.196679
                                CHANNELS 3 Zrotation Yrotation Xrotation
                                JOINT RightHandFore2
                                {
                                    OFFSET -0.162928 -0.142859 -0.006501
                                    CHANNELS 3 Zrotation Yrotation Xrotation
                                    JOINT RightHandFore3
                                    {
                                        OFFSET -0.030688 -0.125646 -0.005781
                                        CHANNELS 3 Zrotation Yrotation Xrotation
                                        End Site
                                        {
                                            OFFSET 0.067217 -0.181085 -0.007556
                                        }
                                    }
                                }
                            }
                            JOINT RightHandMiddle1
                            {
                                OFFSET -0.709887 -0.008302 0.018525
                                CHANNELS 3 Zrotation Yrotation Xrotation
                                JOINT RightHandMiddle2
                                {
                                    OFFSET -0.182776 -0.163136 0.006433
                                    CHANNELS 3 Zrotation Yrotation Xrotation
                                    JOINT RightHandMiddle3
                                    {
                                        OFFSET -0.022032 -0.144516 -0.003740
                                        CHANNELS 3 Zrotation Yrotation Xrotation
                                        End Site
                                        {
                                            OFFSET 0.121365 -0.201546 -0.016732
                                        }
                                    }
                                }
                            }
                            JOINT RightHandRing1
                            {
                                OFFSET -0.743819 -0.005785 -0.153669
                                CHANNELS 3 Zrotation Yrotation Xrotation
                                JOINT RightHandRing2
                                {
                                    OFFSET -0.276969 -0.217858 0.023642
                                    CHANNELS 3 Zrotation Yrotation Xrotation
                                    JOINT RightHandRing3
                                    {
                                        OFFSET -0.003953 -0.134353 -0.023209
                                        CHANNELS 3 Zrotation Yrotation Xrotation
                                        End Site
                                        {
                                            OFFSET 0.067864 -0.094910 -0.028405
                                        }
                                    }
                                }
                            }
                            JOINT RightHandLittle1
                            {
                                OFFSET -0.689403 -0.053298 -0.308303
                                CHANNELS 3 Zrotation Yrotation Xrotation
                                JOINT RightHandLittle2
                                {
                                    OFFSET -0.174517 -0.086747 0.008599
                                    CHANNELS 3 Zrotation Yrotation Xrotation
                                    JOINT RightHandLittle3
                                    {
                                        OFFSET -0.061740 -0.102512 -0.013226
                                        CHANNELS 3 Zrotation Yrotation Xrotation
                                        End Site
                                        {
                                            OFFSET 0.008797 -0.181032 -0.058638
                                        }
                                    }
                                }
                            }
                        }
                    }
                }
            }
        }
    }
    JOINT LeftHip
    {
        OFFSET 0.685143 0.673822 -0.044491
        CHANNELS 3 Zrotation Yrotation Xrotation
        JOINT LeftKnee
        {
            OFFSET 0.085364 -3.750208 0.017676
            CHANNELS 3 Zrotation Yrotation Xrotation
            JOINT LeftAnkle
            {
                OFFSET 0.094583 -4.155206 0.019585
                CHANNELS 3 Zrotation Yrotation Xrotation
                JOINT LeftToe
                {
                    OFFSET -0.000000 -0.395925 0.621478
                    CHANNELS 3 Zrotation Yrotation Xrotation
                    End Site
                    {
                        OFFSET -0.000000 -0.077878 0.321152
                    }
                }
            }
        }
    }
    JOINT RightHip
    {
        OFFSET -0.685143 0.673822 -0.044492
        CHANNELS 3 Zrotation Yrotation Xrotation
        JOINT RightKnee
        {
            OFFSET -0.085364 -3.750208 0.017677
            CHANNELS 3 Zrotation Yrotation Xrotation
            JOINT RightAnkle
            {
                OFFSET -0.094583 -4.155206 0.019585
                CHANNELS 3 Zrotation Yrotation Xrotation
                JOINT RightToe
                {
                    OFFSET -0.000000 -0.395925 0.621478
                    CHANNELS 3 Zrotation Yrotation Xrotation
                    End Site
                    {
                        OFFSET -0.000000 -0.077878 0.321152
                    }
                }
            }
        }
    }
}
MOTION
Frames: 4
Frame Time: 0.033333
-0.011548 8.256481 -0.483270 180.000000 -0.000011 180.000000 0.308145 -6.146036 -0.304111 3.847141 0.770480 -5.213063 -2.171945 -0.915989 9.302257 0.050005 -0.971031 19.864481 11.658452 -6.027795 -0.104384 26.123274 -37.581284 -98.363190 1.548176 -72.483253 -2.119295 30.772116 -5.213270 -32.460407 -0.000011 0.000010 0.000009 5.372955 1.964713 -22.860704 2.398215 5.736660 2.089987 33.590221 3.705328 -2.173350 28.637461 0.663108 1.977327 18.156221 0.845971 1.052930 34.207161 1.647071 -1.482993 31.511297 1.655381 -1.154811 27.730675 1.383052 -1.062407 35.603901 2.266040 -3.178397 38.227367 3.216192 -3.759410 21.346830 2.215649 -2.575001 28.041286 0.011681 1.294410 31.842800 9.704203 -2.499892 46.729855 7.474099 -2.826066 -13.705762 5.302077 0.079384 -65.568924 34.177235 -102.782883 -0.662846 59.942841 -1.156714 -49.335373 -11.572940 -51.899582 -0.000003 0.000019 -0.000009 -7.353366 4.566735 10.619485 5.675291 -0.510693 2.956523 -45.675465 -1.795360 -3.404543 -34.198116 -0.466422 -1.040106 -23.747189 0.197830 -0.696268 -44.205826 -0.128386 -3.017057 -37.034447 0.208039 -2.785128 -33.242973 0.220450 -2.498510 -41.484871 0.305613 -3.513613 -43.209316 3.440948 -10.210961 -26.467606 3.995420 -5.987100 -34.466671 4.449584 -0.961171 -20.931299 8.914021 -4.608558 -32.590366 7.135378 -7.646566 2.291935 60.010193 -18.832260 0.385965 0.926086 45.246876 -37.797630 -25.396006 12.408095 -0.415232 -1.983646 -1.805533 0.222023 -11.691933 -3.944908 -0.036867 -0.307926 13.656820 18.009649 1.019962 -11.853312 0.257865 2.729276 -8.231292
-0.011548 8.256481 -0.483270 180.000000 -0.000011 180.000000 0.361313 -6.019806 -0.558692 4.019232 0.753518 -5.384051 -4.928213 -1.092146 10.826409 0.072834 -1.414276 22.694752 12.441616 -5.712288 -0.099312 41.994057 -0.790715 -44.415947 0.801134 -63.014084 -1.314249 41.208679 30.901709 -78.882660 0.000003 0.000001 0.000000 3.887319 1.293581 -24.760614 4.250542 4.402569 1.456825 35.689632 3.832891 -1.871825 30.465410 0.670610 2.111145 19.363615 0.890123 1.131260 36.731949 1.808391 -1.544435 33.548393 1.780662 -1.196329 28.945959 1.451033 -1.092721 37.684601 2.572463 -3.552133 38.254196 3.337776 -3.596379 23.084263 2.435684 -2.745809 30.092001 0.513256 0.695920 31.877722 9.969976 -2.320239 49.999973 8.044790 -2.782578 -14.880021 4.550022 0.078835 -76.041687 4.367625 -52.662228 -0.352443 49.225319 -0.776638 -44.235786 -42.808544 -101.202011 -0.000008 -0.000007 -0.000012 -9.353654 4.949973 11.864905 5.791589 1.543185 1.859560 -47.810215 -1.880876 -3.085601 -36.039604 -0.508346 -1.086036 -24.929747 0.200243 -0.732156 -46.762848 -0.293296 -3.055186 -39.063854 0.167336 -2.935406 -34.457352 0.199903 -2.588866 -43.630924 -0.008212 -3.856453 -43.195751 3.529024 -10.392794 -28.186043 4.152022 -6.427898 -36.610371 3.926901 -1.490731 -20.913506 9.197830 -4.768356 -35.799942 7.569092 -8.579212 30.137445 85.389557 2.511646 0.576846 1.082422 56.104912 -27.178263 -49.195694 21.708393 0.000003 0.000005 0.000001 0.186332 -12.366303 -3.949142 -0.036830 -0.307774 13.649963 14.650985 3.047862 -12.445795 0.221344 1.916194 -7.040352
-0.011548 8.256481 -0.483270 180.000000 -0.000011 180.000000 0.468598 -5.815207 -0.834875 3.995740 0.727705 -5.471069 -7.607952 -1.126398 11.319296 0.079799 -1.549455 23.614077 13.304913 -4.844034 -0.094906 54.029469 6.622272 -22.664675 0.464110 -53.935818 -0.919452 32.134113 36.694180 -112.650841 -0.000005 -0.000003 -0.000009 2.274633 0.441580 -26.836990 6.386782 2.645243 0.566707 37.252666 3.853045 -1.602050 31.829105 0.673403 2.211115 20.156015 0.918221 1.183167 38.812286 1.967121 -1.574408 35.205936 1.883644 -1.226798 29.666981 1.491957 -1.110001 39.231190 2.928823 -3.845318 38.276134 3.444893 -3.462955 24.441641 2.611163 -2.874599 31.613388 1.078298 0.175595 31.897036 10.130161 -2.216158 53.199287 8.598995 -2.708329 -16.059294 3.812581 0.080620 -86.390785 0.140682 -29.985003 -0.132761 33.654499 -0.446288 -24.153379 -46.194118 -128.620087 -0.000005 -0.000010 -0.000003 -11.606896 5.420571 13.171005 5.595232 4.080911 0.367017 -49.011982 -1.835073 -2.872140 -37.050957 -0.532006 -1.110691 -25.369091 0.200944 -0.745494 -48.490639 -0.431102 -3.053423 -40.365822 0.138434 -3.031019 -34.824726 0.193582 -2.616204 -44.845505 -0.335322 -4.056965 -43.187077 3.593684 -10.515632 -29.193953 4.237637 -6.688421 -37.830929 3.399564 -1.861092 -20.905485 9.296031 -4.821332 -38.650902 7.909407 -9.425368 106.750702 87.153610 73.703178 0.786155 1.196739 66.599579 -15.524093 -54.859367 14.617413 -0.000001 0.000005 -0.000002 0.104052 -13.920205 -3.962142 -0.036794 -0.307629 13.643365 13.664456 4.888563 -12.234722 0.209693 1.743943 -6.773301
-0.011548 8.256481 -0.483270 180.000000 -0.000011 180.000000 0.596992 -5.544025 -1.125555 3.881544 0.690001 -5.475385 -10.127319 -1.057369 11.799527 0.076152 -1.478637 24.540014 13.969544 -3.980847 -0.089263 58.760494 7.629976 -12.943815 0.274693 -45.014313 -0.670259 27.281794 36.912079 -119.551399 -0.000003 -0.000002 -0.000002 0.753086 -0.486233 -28.812567 8.547962 0.688697 -0.496147 38.544048 3.789485 -1.333076 33.027977 0.673911 2.299034 20.915194 0.944443 1.233260 40.648949 2.132739 -1.579764 36.746780 1.980133 -1.252439 30.279301 1.528047 -1.124282 40.495987 3.359069 -4.101574 38.296101 3.548676 -3.341722 25.717220 2.778822 -2.991832 32.843410 1.746624 -0.330547 31.910719 10.248468 -2.141303 56.395576 9.146782 -2.603072 -16.988724 3.120740 0.080525 -92.111992 6.623027 -20.151318 -0.008839 9.559615 -0.113025 -16.125357 -40.068069 -140.246017 0.000018 0.000012 0.000005 -13.815643 5.921772 14.378298 5.133447 6.717640 -1.300282 -49.886452 -1.708866 -2.685044 -37.840599 -0.550765 -1.129649 -25.717529 0.201423 -0.756077 -49.920036 -0.567750 -3.027478 -41.499771 0.111484 -3.113733 -35.025791 0.190809 -2.631433 -45.723682 -0.720724 -4.208458 -43.180031 3.653439 -10.622561 -30.065445 4.307949 -6.914788 -38.708485 2.789718 -2.197984 -20.901106 9.339260 -4.844261 -41.449234 8.201760 -10.270102 103.998703 86.908623 66.741920 0.970846 1.260682 75.196190 -3.693289 -54.560783 4.838490 -0.000001 0.000003 -0.000000 0.012305 -15.650033 -3.974661 -0.036762 -0.307495 13.637231 13.110003 6.725865 -11.895166 0.203984 1.667996 -6.657421
